<?xml version="1.0" encoding="UTF-8"?>
<svg id="Layer_1" xmlns="http://www.w3.org/2000/svg" viewBox="0 0 1000 1000">
  <defs>
    <style>
      .cls-1 {
        fill: #fff;
      }

      .cls-2 {
        fill: #ff6a2a;
      }
    </style>
  </defs>
  <rect id="Rounded_Rectangle" x="0" width="1000" height="1000" rx="97.98" ry="97.98"/>
  <g id="Icon_Size">
    <g id="all-white">
      <path class="cls-1" d="M751.32,346.92c-9.31-.69-17.32-1.36-25.35-1.76-1.03-.05-2.37,1.17-3.17,2.13-6.45,7.77-14.43,12.75-24.31,15.38-4.1,1.09-7.67,4.49-11.22,7.17-2.84,2.14-5.51,3.43-9.09,1.99-14.97-6.01-30.55-8.82-46.68-8.69-.53,0-1.06-.25-1.58-.39l-.46-1.28c7.73-3.85,15.5-7.61,23.17-11.59,4.38-2.27,8.77-4.61,12.82-7.4,7.8-5.37,15.84-5.65,23.98-.72,1.77,1.07,4.33,1.93,6.23,1.53,6.71-1.44,13.29-3.47,19.91-5.28.22-.53.44-1.05.65-1.58-5.06-4-9.67-8.84-15.26-11.86-26.51-14.32-53.01-13.47-78.93,1.7-15.16,8.87-26.87,21.51-35.04,36.83-9.31,17.46-17.31,35.63-25.88,53.49.36.4.71.8,1.07,1.2,1.76-.44,3.52-.86,5.28-1.31,19.02-4.85,37.64-4.47,55.17,5.27,21.41,11.89,30.28,30.95,29.56,54.78-.63,20.81-8.95,39.39-17.99,57.63-28.59,57.69-70.83,103.24-123.74,139.41-25.55,17.47-51.2,34.85-76.01,53.35-32.84,24.48-60.46,54.49-86.8,85.7-15.7,18.61-31.24,37.36-47.19,55.76-21.37,24.65-49.27,37.92-80.64,44.39-15.88,3.27-31.98,5.5-47.98,8.16-1.76.29-3.56.3-6.29.51,3.11-4.79,5.76-9.02,8.55-13.15,26.03-38.54,53.67-75.82,85.29-110.03,25.01-27.05,53.63-49.04,87.77-63.41,2.63-1.11,5.32-2.06,7.99-3.05.22-.08.54.13,1.54.41-9.33,9.43-18.27,18.74-27.51,27.73-19.93,19.38-41.16,37.57-59.72,58.17-19.98,22.17-37.52,46.54-56.09,69.96-1.1,1.38-1.96,2.95-3.64,5.5,6.09-1.29,11.16-2.18,16.14-3.44,25.54-6.47,46.81-19.58,63.86-39.91,23.56-28.11,47.15-56.22,71.58-83.56,30.54-34.17,66.41-62.2,104.6-87.36,27-17.78,53.8-35.84,77.6-57.94,22.04-20.47,41.61-42.96,57.3-68.71,1.24-2.04,2.37-4.14,3.28-6.55-95.89,53.9-194.53,102.86-285.3,165.54l-1.22-1.39c3.55-6.66,7.01-13.37,10.65-19.98,27.33-49.6,59.72-95.6,98.62-136.82,24.45-25.91,50.98-49.45,83.03-65.74,10.27-5.22,21.26-9.02,31.95-13.41,1.41-.58,2.99-.75,4.49-1.1.22.39.44.77.66,1.16-7.79,6.97-15.49,14.03-23.37,20.89-18.36,15.99-37.22,31.44-55.13,47.93-31.63,29.12-59.81,61.33-83.46,97.34-.32.49-.63.98-1.48,2.33,1.54-.69,2.27-.95,2.95-1.32,69.39-38.51,138.79-76.99,208.12-115.6,6.94-3.86,13.85-7.98,20.1-12.85,16.35-12.72,22.67-37.82,14.34-56.75-6.34-14.41-18.66-20.63-33.59-22.37-12.84-1.49-25.16,1.22-37.14,5.57-19.58,7.12-37.7,17.21-55.6,27.71-1.13.66-2.3,1.28-4.14,1.46.87-1.62,1.54-3.39,2.65-4.82,7.22-9.39,13.52-19.79,22.04-27.81,13.26-12.49,21.56-27.39,27.88-44.07,8.07-21.3,17.81-41.87,32.98-59.18,27.31-31.16,60.96-45.89,102.58-36.89,18.27,3.95,33.52,13.82,45.08,28.78,1.8,2.33,3.56,3.05,6.41,2.92,19.72-.89,38.58,2.73,56.4,11.35,2.14,1.03,4.18,2.26,7.03,3.81-5.49,2.44-10.35,4.49-15.11,6.72-14.77,6.92-28.67,15.18-40.66,26.41-23.15,21.71-33.4,48.92-31.23,80,5.3,75.82-41.6,172.53-116.69,219.55-20.18,12.63-41.02,23.85-62.68,33.63-1.48.67-2.94,1.38-4.86,2.28,9.37,11.73,18.54,23.24,27.75,34.72,16.36,20.41,32.7,40.83,49.21,61.12,1.04,1.28,3.44,2.2,5.13,2.09,10.77-.68,21.34-.55,32.01,5.16-24.94,15.9-49.4,31.5-74.87,47.74-.43-18.72,8.13-31.67,21.4-42.85-15.23-19.03-30.43-38-45.61-56.99-15.21-19.01-30.4-38.03-45.9-57.41,6.08-2.98,11.76-5.6,17.29-8.51,19.42-10.19,39.1-19.92,58.1-30.83,48.13-27.63,82.03-67.83,103.24-118.98,9.76-23.53,16.07-47.8,16.75-73.36.31-11.71-.41-23.48.5-35.14,2.82-36.33,19.45-65.09,48.99-86.4,1.92-1.39,3.9-2.7,6.98-4.83Z"/>
      <path class="cls-1" d="M543.68,107.75c3.2-7.44,6.08-14.16,9.21-21.45,3.38,1.95,7.14,4,10.77,6.25,60.78,37.71,121.57,75.4,182.3,113.19,29.35,18.26,58.61,36.69,87.87,55.1,27.22,17.13,40.68,42.52,40.8,73.99.46,115.62.21,231.25.06,346.87-.03,24.57-9.24,45.69-27.61,61.88-9.39,8.28-20.49,14.68-31.09,21.51-51.56,33.21-103.21,66.27-154.82,99.39-39.08,25.08-77.85,50.66-117.37,75.04-23.89,14.73-49.55,15.26-73.61.49-41.11-25.23-81.48-51.66-122.15-77.6-1.24-.79-2.35-1.77-3.81-2.87,4.81-6.12,9.41-11.98,14.17-18.05,15.52,9.79,30.79,19.36,45.99,29.05,25.85,16.48,51.44,33.38,77.55,49.43,16.52,10.15,34.16,10,50.42-.4,85.61-54.73,170.97-109.84,256.42-164.81,11.5-7.4,23.02-14.77,34.55-22.13,18.66-11.92,27.87-29.38,27.94-51.07.27-94.12.11-188.25.11-282.37,0-20.9.08-41.8.01-62.7-.08-24.48-10.25-43.33-31.23-56.34-66.81-41.43-133.56-82.94-200.31-124.48-24.24-15.09-48.4-30.31-72.58-45.49-1.37-.86-2.68-1.82-3.59-2.43Z"/>
      <path class="cls-1" d="M448.87,86.04c3.12,7.37,6.02,14.24,9.19,21.75-5.67,3.64-11.89,7.73-18.21,11.68-63.44,39.71-126.89,79.41-190.36,119.07-23.83,14.89-47.98,29.3-71.53,44.64-18.72,12.19-29.19,30.1-29.26,52.53-.33,115.77-.34,231.54-.13,347.31.04,20.55,10.38,35.94,27.56,46.79,21.6,13.64,43.27,27.18,64.91,40.77,1.39.87,2.72,1.83,4.31,2.91-5.08,5.43-9.89,10.77-15.02,15.78-.69.67-3.33.1-4.59-.68-14.69-9.12-29.29-18.36-43.9-27.61-8.12-5.15-16.52-9.93-24.24-15.64-21.52-15.92-32.34-37.73-32.39-64.3-.21-113.36-.16-226.73.08-340.1.02-9.5,1.1-19.31,3.65-28.42,6.15-22.02,19.76-38.83,39.15-50.98,54.38-34.08,108.72-68.23,163.11-102.3,37.82-23.69,75.7-47.3,113.56-70.93,1.38-.86,2.84-1.59,4.09-2.28Z"/>
      <path class="cls-1" d="M358.97,447.23c-18.64,0-37.27-.03-55.91.02-5.16.02-9.09-1.87-11.22-6.7-3.15-7.15,2.12-14.45,10.67-14.55,12.32-.15,24.65-.07,36.97-.08,24.5-.01,49-.02,73.49-.02,1.5,0,3.01-.05,4.51.08,6.27.52,10.66,5.01,10.59,10.75-.07,5.63-4.69,10.29-10.94,10.42-10.22.2-20.44.06-30.66.06-9.17,0-18.34,0-27.5,0v.02Z"/>
      <path class="cls-1" d="M500.76,108.99c-16.99-.07-30.03-13.18-29.93-30.1.1-16.39,13.68-29.84,30.04-29.73,16.53.11,30.46,14.27,30.25,30.76-.2,15.67-14.26,29.13-30.36,29.06Z"/>
      <path class="cls-1" d="M350.7,371.2c8.4,0,16.81-.04,25.21,0,7.21.04,11.88,4.32,11.78,10.7-.09,6.03-4.84,10.35-11.76,10.38-16.96.07-33.92.07-50.88,0-7.04-.03-11.42-4.17-11.48-10.52-.06-6.29,4.26-10.39,11.46-10.51,8.55-.14,17.11-.03,25.66-.04Z"/>
      <path class="cls-1" d="M259.07,371.14c7.95,0,15.9-.04,23.85.01,6.72.04,11.53,4.52,11.49,10.6-.03,5.92-4.63,10.44-11.18,10.49-16.05.12-32.1.11-48.16.02-6.76-.04-11.08-4.2-11.2-10.36-.12-6.24,4.35-10.58,11.34-10.69,7.95-.13,15.9-.03,23.85-.03,0-.01,0-.02,0-.03Z"/>
      <path class="cls-1" d="M259.32,535.66c7.96,0,15.91-.04,23.87.01,6.94.04,11.38,4.29,11.26,10.64-.11,6.05-4.55,10.12-11.38,10.15-15.91.07-31.83.07-47.74.03-7-.02-11.48-4.22-11.46-10.53.02-6.24,4.5-10.3,11.58-10.35,7.96-.05,15.91-.01,23.87-.01,0,.02,0,.03,0,.05Z"/>
      <path class="cls-1" d="M319.69,501.62c-6.6,0-13.2.07-19.8-.02-6.56-.09-11.23-4.52-11.17-10.4.05-5.72,4.58-10.21,10.9-10.27,13.65-.15,27.3-.15,40.94-.04,6.07.05,10.48,4.83,10.34,10.72-.14,5.72-4.43,9.9-10.52,9.99-6.9.1-13.8.02-20.7.02Z"/>
      <path class="cls-1" d="M312.46,337.45c-4.65,0-9.31.12-13.95-.03-6.12-.19-10.25-4.42-10.25-10.23,0-6,3.87-10.32,10.02-10.45,9.9-.21,19.81-.17,29.71,0,5.66.1,9.72,4.5,9.92,10.2.18,5.32-4.13,10.21-9.69,10.48-5.24.26-10.5.06-15.75.06v-.02Z"/>
      <path class="cls-1" d="M414.21,337.47c-4.81,0-9.62.11-14.42-.03-5.76-.16-9.9-4.43-9.99-10.05-.09-5.69,3.76-10.42,9.49-10.59,10.06-.3,20.13-.28,30.19,0,5.66.16,9.87,5.4,9.63,11.04-.22,5.24-4.47,9.43-10.03,9.61-4.95.16-9.91.03-14.87.03v-.02Z"/>
      <path class="cls-1" d="M248.26,425.97c4.35,0,8.7-.13,13.04.03,5.99.22,10.35,4.53,10.54,10.15.17,5.22-3.92,10.53-9.48,10.78-9.87.43-19.79.42-29.66-.04-5.42-.25-8.98-5.25-8.81-10.72.17-5.63,4.09-9.84,9.98-10.18,4.78-.27,9.59-.06,14.39-.06v.04Z"/>
      <path class="cls-1" d="M236,501.8c-5.91-.07-10.68-4.78-10.68-10.56,0-5.6,5.03-10.46,10.84-10.44,6.23.01,10.99,4.74,10.86,10.79-.12,5.67-5.1,10.29-11.01,10.22Z"/>
      <path class="cls-1" d="M406.87,381.54c0-5.68,4.49-10.19,10.27-10.3,6.09-.12,11.01,4.66,10.96,10.65-.05,5.73-4.95,10.44-10.79,10.38-5.78-.07-10.44-4.86-10.44-10.72Z"/>
      <path class="cls-1" d="M335.01,546.59c-.33,5.79-5.32,10.27-11.11,9.99-5.69-.28-10.44-5.51-10.07-11.08.39-5.91,5.61-10.32,11.68-9.88,5.62.41,9.82,5.27,9.5,10.97Z"/>
      <path class="cls-1" d="M364.22,316.68c5.81.08,10.41,4.84,10.36,10.73-.04,5.73-4.99,10.43-10.79,10.25-5.87-.18-10.43-4.92-10.36-10.76.07-5.85,4.76-10.31,10.79-10.23Z"/>
    </g>
    <g id="color">
      <path class="cls-1" d="M751.32,346.92c-9.31-.69-17.32-1.36-25.35-1.76-1.03-.05-2.37,1.17-3.17,2.13-6.45,7.77-14.43,12.75-24.31,15.38-4.1,1.09-7.67,4.49-11.22,7.17-2.84,2.14-5.51,3.43-9.09,1.99-14.97-6.01-30.55-8.82-46.68-8.69-.53,0-1.06-.25-1.58-.39l-.46-1.28c7.73-3.85,15.5-7.61,23.17-11.59,4.38-2.27,8.77-4.61,12.82-7.4,7.8-5.37,15.84-5.65,23.98-.72,1.77,1.07,4.33,1.93,6.23,1.53,6.71-1.44,13.29-3.47,19.91-5.28.22-.53.44-1.05.65-1.58-5.06-4-9.67-8.84-15.26-11.86-26.51-14.32-53.01-13.47-78.93,1.7-15.16,8.87-26.87,21.51-35.04,36.83-9.31,17.46-17.31,35.63-25.88,53.49.36.4.71.8,1.07,1.2,1.76-.44,3.52-.86,5.28-1.31,19.02-4.85,37.64-4.47,55.17,5.27,21.41,11.89,30.28,30.95,29.56,54.78-.63,20.81-8.95,39.39-17.99,57.63-28.59,57.69-70.83,103.24-123.74,139.41-25.55,17.47-51.2,34.85-76.01,53.35-32.84,24.48-60.46,54.49-86.8,85.7-15.7,18.61-31.24,37.36-47.19,55.76-21.37,24.65-49.27,37.92-80.64,44.39-15.88,3.27-31.98,5.5-47.98,8.16-1.76.29-3.56.3-6.29.51,3.11-4.79,5.76-9.02,8.55-13.15,26.03-38.54,53.67-75.82,85.29-110.03,25.01-27.05,53.63-49.04,87.77-63.41,2.63-1.11,5.32-2.06,7.99-3.05.22-.08.54.13,1.54.41-9.33,9.43-18.27,18.74-27.51,27.73-19.93,19.38-41.16,37.57-59.72,58.17-19.98,22.17-37.52,46.54-56.09,69.96-1.1,1.38-1.96,2.95-3.64,5.5,6.09-1.29,11.16-2.18,16.14-3.44,25.54-6.47,46.81-19.58,63.86-39.91,23.56-28.11,47.15-56.22,71.58-83.56,30.54-34.17,66.41-62.2,104.6-87.36,27-17.78,53.8-35.84,77.6-57.94,22.04-20.47,41.61-42.96,57.3-68.71,1.24-2.04,2.37-4.14,3.28-6.55-95.89,53.9-194.53,102.86-285.3,165.54l-1.22-1.39c3.55-6.66,7.01-13.37,10.65-19.98,27.33-49.6,59.72-95.6,98.62-136.82,24.45-25.91,50.98-49.45,83.03-65.74,10.27-5.22,21.26-9.02,31.95-13.41,1.41-.58,2.99-.75,4.49-1.1.22.39.44.77.66,1.16-7.79,6.97-15.49,14.03-23.37,20.89-18.36,15.99-37.22,31.44-55.13,47.93-31.63,29.12-59.81,61.33-83.46,97.34-.32.49-.63.98-1.48,2.33,1.54-.69,2.27-.95,2.95-1.32,69.39-38.51,138.79-76.99,208.12-115.6,6.94-3.86,13.85-7.98,20.1-12.85,16.35-12.72,22.67-37.82,14.34-56.75-6.34-14.41-18.66-20.63-33.59-22.37-12.84-1.49-25.16,1.22-37.14,5.57-19.58,7.12-37.7,17.21-55.6,27.71-1.13.66-2.3,1.28-4.14,1.46.87-1.62,1.54-3.39,2.65-4.82,7.22-9.39,13.52-19.79,22.04-27.81,13.26-12.49,21.56-27.39,27.88-44.07,8.07-21.3,17.81-41.87,32.98-59.18,27.31-31.16,60.96-45.89,102.58-36.89,18.27,3.95,33.52,13.82,45.08,28.78,1.8,2.33,3.56,3.05,6.41,2.92,19.72-.89,38.58,2.73,56.4,11.35,2.14,1.03,4.18,2.26,7.03,3.81-5.49,2.44-10.35,4.49-15.11,6.72-14.77,6.92-28.67,15.18-40.66,26.41-23.15,21.71-33.4,48.92-31.23,80,5.3,75.82-41.6,172.53-116.69,219.55-20.18,12.63-41.02,23.85-62.68,33.63-1.48.67-2.94,1.38-4.86,2.28,9.37,11.73,18.54,23.24,27.75,34.72,16.36,20.41,32.7,40.83,49.21,61.12,1.04,1.28,3.44,2.2,5.13,2.09,10.77-.68,21.34-.55,32.01,5.16-24.94,15.9-49.4,31.5-74.87,47.74-.43-18.72,8.13-31.67,21.4-42.85-15.23-19.03-30.43-38-45.61-56.99-15.21-19.01-30.4-38.03-45.9-57.41,6.08-2.98,11.76-5.6,17.29-8.51,19.42-10.19,39.1-19.92,58.1-30.83,48.13-27.63,82.03-67.83,103.24-118.98,9.76-23.53,16.07-47.8,16.75-73.36.31-11.71-.41-23.48.5-35.14,2.82-36.33,19.45-65.09,48.99-86.4,1.92-1.39,3.9-2.7,6.98-4.83Z"/>
      <path class="cls-1" d="M448.87,86.04c3.12,7.37,6.02,14.24,9.19,21.75-5.67,3.64-11.89,7.73-18.21,11.68-63.44,39.71-126.89,79.41-190.36,119.07-23.83,14.89-47.98,29.3-71.53,44.64-18.72,12.19-29.19,30.1-29.26,52.53-.33,115.77-.34,231.54-.13,347.31.04,20.55,10.38,35.94,27.56,46.79,21.6,13.64,43.27,27.18,64.91,40.77,1.39.87,2.72,1.83,4.31,2.91-5.08,5.43-9.89,10.77-15.02,15.78-.69.67-3.33.1-4.59-.68-14.69-9.12-29.29-18.36-43.9-27.61-8.12-5.15-16.52-9.93-24.24-15.64-21.52-15.92-32.34-37.73-32.39-64.3-.21-113.36-.16-226.73.08-340.1.02-9.5,1.1-19.31,3.65-28.42,6.15-22.02,19.76-38.83,39.15-50.98,54.38-34.08,108.72-68.23,163.11-102.3,37.82-23.69,75.7-47.3,113.56-70.93,1.38-.86,2.84-1.59,4.09-2.28Z"/>
      <g>
        <path class="cls-2" d="M543.68,107.75c3.2-7.44,6.08-14.16,9.21-21.45,3.38,1.95,7.14,4,10.77,6.25,60.78,37.71,121.57,75.4,182.3,113.19,29.35,18.26,58.61,36.69,87.87,55.1,27.22,17.13,40.68,42.52,40.8,73.99.46,115.62.21,231.25.06,346.87-.03,24.57-9.24,45.69-27.61,61.88-9.39,8.28-20.49,14.68-31.09,21.51-51.56,33.21-103.21,66.27-154.82,99.39-39.08,25.08-77.85,50.66-117.37,75.04-23.89,14.73-49.55,15.26-73.61.49-41.11-25.23-81.48-51.66-122.15-77.6-1.24-.79-2.35-1.77-3.81-2.87,4.81-6.12,9.41-11.98,14.17-18.05,15.52,9.79,30.79,19.36,45.99,29.05,25.85,16.48,51.44,33.38,77.55,49.43,16.52,10.15,34.16,10,50.42-.4,85.61-54.73,170.97-109.84,256.42-164.81,11.5-7.4,23.02-14.77,34.55-22.13,18.66-11.92,27.87-29.38,27.94-51.07.27-94.12.11-188.25.11-282.37,0-20.9.08-41.8.01-62.7-.08-24.48-10.25-43.33-31.23-56.34-66.81-41.43-133.56-82.94-200.31-124.48-24.24-15.09-48.4-30.31-72.58-45.49-1.37-.86-2.68-1.82-3.59-2.43Z"/>
        <path class="cls-2" d="M358.97,447.23c-18.64,0-37.27-.03-55.91.02-5.16.02-9.09-1.87-11.22-6.7-3.15-7.15,2.12-14.45,10.67-14.55,12.32-.15,24.65-.07,36.97-.08,24.5-.01,49-.02,73.49-.02,1.5,0,3.01-.05,4.51.08,6.27.52,10.66,5.01,10.59,10.75-.07,5.63-4.69,10.29-10.94,10.42-10.22.2-20.44.06-30.66.06-9.17,0-18.34,0-27.5,0v.02Z"/>
        <path class="cls-2" d="M500.76,108.99c-16.99-.07-30.03-13.18-29.93-30.1.1-16.39,13.68-29.84,30.04-29.73,16.53.11,30.46,14.27,30.25,30.76-.2,15.67-14.26,29.13-30.36,29.06Z"/>
        <path class="cls-2" d="M350.7,371.2c8.4,0,16.81-.04,25.21,0,7.21.04,11.88,4.32,11.78,10.7-.09,6.03-4.84,10.35-11.76,10.38-16.96.07-33.92.07-50.88,0-7.04-.03-11.42-4.17-11.48-10.52-.06-6.29,4.26-10.39,11.46-10.51,8.55-.14,17.11-.03,25.66-.04Z"/>
        <path class="cls-2" d="M259.07,371.14c7.95,0,15.9-.04,23.85.01,6.72.04,11.53,4.52,11.49,10.6-.03,5.92-4.63,10.44-11.18,10.49-16.05.12-32.1.11-48.16.02-6.76-.04-11.08-4.2-11.2-10.36-.12-6.24,4.35-10.58,11.34-10.69,7.95-.13,15.9-.03,23.85-.03,0-.01,0-.02,0-.03Z"/>
        <path class="cls-2" d="M259.32,535.66c7.96,0,15.91-.04,23.87.01,6.94.04,11.38,4.29,11.26,10.64-.11,6.05-4.55,10.12-11.38,10.15-15.91.07-31.83.07-47.74.03-7-.02-11.48-4.22-11.46-10.53.02-6.24,4.5-10.3,11.58-10.35,7.96-.05,15.91-.01,23.87-.01,0,.02,0,.03,0,.05Z"/>
        <path class="cls-2" d="M319.69,501.62c-6.6,0-13.2.07-19.8-.02-6.56-.09-11.23-4.52-11.17-10.4.05-5.72,4.58-10.21,10.9-10.27,13.65-.15,27.3-.15,40.94-.04,6.07.05,10.48,4.83,10.34,10.72-.14,5.72-4.43,9.9-10.52,9.99-6.9.1-13.8.02-20.7.02Z"/>
        <path class="cls-2" d="M312.46,337.45c-4.65,0-9.31.12-13.95-.03-6.12-.19-10.25-4.42-10.25-10.23,0-6,3.87-10.32,10.02-10.45,9.9-.21,19.81-.17,29.71,0,5.66.1,9.72,4.5,9.92,10.2.18,5.32-4.13,10.21-9.69,10.48-5.24.26-10.5.06-15.75.06v-.02Z"/>
        <path class="cls-2" d="M414.21,337.47c-4.81,0-9.62.11-14.42-.03-5.76-.16-9.9-4.43-9.99-10.05-.09-5.69,3.76-10.42,9.49-10.59,10.06-.3,20.13-.28,30.19,0,5.66.16,9.87,5.4,9.63,11.04-.22,5.24-4.47,9.43-10.03,9.61-4.95.16-9.91.03-14.87.03v-.02Z"/>
        <path class="cls-2" d="M248.26,425.97c4.35,0,8.7-.13,13.04.03,5.99.22,10.35,4.53,10.54,10.15.17,5.22-3.92,10.53-9.48,10.78-9.87.43-19.79.42-29.66-.04-5.42-.25-8.98-5.25-8.81-10.72.17-5.63,4.09-9.84,9.98-10.18,4.78-.27,9.59-.06,14.39-.06v.04Z"/>
        <path class="cls-2" d="M236,501.8c-5.91-.07-10.68-4.78-10.68-10.56,0-5.6,5.03-10.46,10.84-10.44,6.23.01,10.99,4.74,10.86,10.79-.12,5.67-5.1,10.29-11.01,10.22Z"/>
        <path class="cls-2" d="M406.87,381.54c0-5.68,4.49-10.19,10.27-10.3,6.09-.12,11.01,4.66,10.96,10.65-.05,5.73-4.95,10.44-10.79,10.38-5.78-.07-10.44-4.86-10.44-10.72Z"/>
        <path class="cls-2" d="M335.01,546.59c-.33,5.79-5.32,10.27-11.11,9.99-5.69-.28-10.44-5.51-10.07-11.08.39-5.91,5.61-10.32,11.68-9.88,5.62.41,9.82,5.27,9.5,10.97Z"/>
        <path class="cls-2" d="M364.22,316.68c5.81.08,10.41,4.84,10.36,10.73-.04,5.73-4.99,10.43-10.79,10.25-5.87-.18-10.43-4.92-10.36-10.76.07-5.85,4.76-10.31,10.79-10.23Z"/>
      </g>
    </g>
  </g>
</svg>
