<?xml version="1.0" encoding="UTF-8"?>
<svg id="Layer_1" xmlns="http://www.w3.org/2000/svg" viewBox="0 0 831.04 999.37">
  <defs>
    <style>
      .cls-1 {
        fill: #fff;
      }

      .cls-2 {
        fill: #ff6a2a;
      }
    </style>
  </defs>
  <g id="Full_Size">
    <g id="all-white">
      <path class="cls-1" d="M694.08,330.02c-10.32-.76-19.2-1.51-28.1-1.95-1.14-.06-2.63,1.29-3.51,2.36-7.15,8.62-15.99,14.14-26.94,17.05-4.54,1.21-8.5,4.97-12.44,7.94-3.14,2.37-6.11,3.8-10.08,2.2-16.59-6.67-33.86-9.78-51.74-9.64-.58,0-1.17-.28-1.76-.43l-.51-1.42c8.57-4.27,17.18-8.44,25.68-12.84,4.85-2.52,9.72-5.11,14.21-8.2,8.64-5.95,17.56-6.26,26.58-.79,1.97,1.19,4.8,2.14,6.91,1.69,7.43-1.59,14.73-3.85,22.07-5.85.24-.58.48-1.17.73-1.75-5.61-4.44-10.71-9.8-16.91-13.15-29.38-15.87-58.75-14.93-87.49,1.88-16.81,9.83-29.79,23.84-38.84,40.82-10.32,19.36-19.18,39.49-28.68,59.28.4.44.79.89,1.19,1.33,1.95-.48,3.9-.96,5.85-1.45,21.08-5.38,41.72-4.95,61.14,5.84,23.73,13.18,33.56,34.3,32.77,60.72-.69,23.06-9.92,43.65-19.94,63.87-31.69,63.94-78.5,114.43-137.15,154.52-28.32,19.36-56.75,38.63-84.24,59.13-36.4,27.14-67.02,60.4-96.2,94.99-17.4,20.63-34.63,41.41-52.3,61.8-23.69,27.32-54.61,42.03-89.38,49.2-17.6,3.63-35.44,6.1-53.18,9.04-1.95.32-3.95.33-6.97.57,3.44-5.31,6.38-10,9.47-14.58,28.85-42.71,59.48-84.04,94.53-121.96,27.71-29.98,59.44-54.35,97.28-70.28,2.91-1.23,5.89-2.29,8.86-3.38.24-.09.6.15,1.71.45-10.35,10.45-20.25,20.77-30.49,30.73-22.09,21.48-45.62,41.64-66.19,64.48-22.14,24.57-41.58,51.58-62.17,77.54-1.22,1.53-2.18,3.27-4.04,6.09,6.75-1.42,12.37-2.41,17.88-3.81,28.31-7.17,51.89-21.7,70.77-44.23,26.11-31.16,52.25-62.31,79.34-92.62,33.85-37.87,73.61-68.94,115.94-96.82,29.92-19.71,59.63-39.72,86.01-64.21,24.43-22.69,46.12-47.62,63.5-76.16,1.37-2.26,2.63-4.59,3.63-7.26-106.28,59.74-215.61,114.01-316.22,183.47l-1.36-1.54c3.93-7.38,7.77-14.82,11.81-22.14,30.29-54.97,66.19-105.95,109.3-151.64,27.1-28.71,56.5-54.8,92.03-72.86,11.38-5.78,23.57-10,35.41-14.86,1.56-.64,3.31-.83,4.97-1.22.25.43.49.85.74,1.28-8.63,7.73-17.17,15.55-25.91,23.16-20.35,17.73-41.26,34.85-61.11,53.12-35.06,32.27-66.29,67.97-92.5,107.89-.35.54-.69,1.09-1.64,2.58,1.71-.76,2.52-1.05,3.26-1.46,76.9-42.68,153.83-85.33,230.67-128.12,7.69-4.28,15.35-8.85,22.28-14.24,18.12-14.1,25.13-41.91,15.9-62.9-7.03-15.98-20.68-22.87-37.23-24.79-14.23-1.65-27.88,1.35-41.16,6.18-21.7,7.89-41.78,19.08-61.63,30.72-1.26.74-2.55,1.42-4.59,1.62.97-1.79,1.71-3.75,2.94-5.35,8-10.41,14.99-21.93,24.43-30.83,14.7-13.84,23.9-30.36,30.9-48.84,8.94-23.61,19.74-46.4,36.56-65.59,30.27-34.53,67.57-50.86,113.69-40.89,20.25,4.38,37.15,15.32,49.97,31.9,1.99,2.58,3.94,3.38,7.1,3.24,21.86-.99,42.76,3.02,62.52,12.58,2.37,1.15,4.64,2.51,7.79,4.23-6.09,2.7-11.47,4.98-16.75,7.45-16.37,7.67-31.78,16.82-45.06,29.27-25.66,24.06-37.02,54.22-34.61,88.66,5.88,84.03-46.1,191.23-129.34,243.34-22.36,14-45.47,26.43-69.47,37.27-1.64.74-3.26,1.53-5.39,2.53,10.39,13,20.55,25.76,30.75,38.48,18.13,22.62,36.25,45.25,54.54,67.75,1.16,1.42,3.81,2.44,5.69,2.32,11.93-.76,23.65-.61,35.48,5.71-27.64,17.63-54.75,34.91-82.98,52.91-.48-20.74,9.01-35.11,23.71-47.49-16.88-21.09-33.72-42.12-50.56-63.16-16.85-21.07-33.69-42.15-50.87-63.64,6.74-3.31,13.04-6.21,19.16-9.43,21.52-11.29,43.34-22.08,64.4-34.17,53.35-30.62,90.92-75.17,114.43-131.87,10.81-26.08,17.81-52.98,18.56-81.31.34-12.98-.45-26.03.55-38.94,3.13-40.27,21.56-72.14,54.29-95.76,2.13-1.54,4.32-2.99,7.74-5.36Z"/>
      <path class="cls-1" d="M463.94,64.93c3.54-8.25,6.74-15.7,10.21-23.77,3.74,2.16,7.91,4.43,11.93,6.93,67.37,41.79,134.74,83.57,202.05,125.45,32.53,20.24,64.96,40.66,97.39,61.07,30.17,18.98,45.09,47.13,45.22,82.01.51,128.15.23,256.3.07,384.46-.03,27.24-10.24,50.64-30.6,68.59-10.41,9.18-22.71,16.27-34.46,23.84-57.14,36.81-114.39,73.46-171.6,110.16-43.32,27.79-86.29,56.15-130.09,83.17-26.47,16.33-54.92,16.91-81.58.55-45.57-27.96-90.31-57.25-135.39-86.01-1.37-.87-2.61-1.96-4.23-3.19,5.33-6.78,10.43-13.28,15.71-20.01,17.2,10.86,34.13,21.46,50.98,32.2,28.65,18.26,57.01,36.99,85.95,54.78,18.31,11.25,37.86,11.08,55.88-.44,94.88-60.66,189.49-121.74,284.2-182.67,12.75-8.2,25.52-16.37,38.29-24.53,20.68-13.21,30.89-32.56,30.96-56.6.3-104.32.12-208.64.13-312.97,0-23.16.09-46.33.01-69.49-.09-27.13-11.36-48.02-34.61-62.44-74.05-45.92-148.04-91.93-222.01-137.96-26.87-16.72-53.64-33.6-80.45-50.41-1.52-.95-2.98-2.01-3.98-2.7Z"/>
      <path class="cls-1" d="M358.86,40.87c3.45,8.17,6.67,15.79,10.19,24.1-6.28,4.04-13.18,8.57-20.18,12.95-70.32,44.01-140.64,88.01-210.99,131.97-26.42,16.51-53.18,32.48-79.28,49.47-20.75,13.51-32.35,33.37-32.42,58.23-.37,128.31-.37,256.63-.14,384.94.04,22.77,11.51,39.84,30.55,51.86,23.94,15.12,47.96,30.12,71.94,45.19,1.54.97,3.02,2.03,4.78,3.23-5.63,6.01-10.96,11.94-16.65,17.49-.76.75-3.69.11-5.08-.75-16.28-10.1-32.47-20.35-48.65-30.6-9-5.7-18.31-11.01-26.86-17.34C12.2,753.96.2,729.79.15,700.34c-.23-125.65-.18-251.3.09-376.95.02-10.53,1.22-21.4,4.04-31.5,6.82-24.41,21.9-43.03,43.39-56.5,60.27-37.78,120.5-75.62,180.78-113.38,41.92-26.26,83.9-52.42,125.87-78.61,1.53-.95,3.15-1.76,4.53-2.52Z"/>
      <path class="cls-1" d="M259.21,441.2c-20.66,0-41.31-.04-61.97.03-5.72.02-10.08-2.07-12.44-7.43-3.49-7.92,2.35-16.01,11.82-16.13,13.66-.17,27.32-.08,40.98-.09,27.15-.01,54.3-.02,81.46-.02,1.67,0,3.34-.05,5,.08,6.95.58,11.82,5.55,11.74,11.92-.08,6.24-5.19,11.41-12.12,11.54-11.32.23-22.65.07-33.98.07-10.16,0-20.32,0-30.48,0v.02Z"/>
      <path class="cls-1" d="M416.37,66.3c-18.83-.08-33.29-14.61-33.17-33.36C383.3,14.78,398.36-.12,416.49,0c18.33.12,33.76,15.82,33.53,34.09-.22,17.37-15.81,32.29-33.65,32.21Z"/>
      <path class="cls-1" d="M250.04,356.93c9.31,0,18.63-.05,27.94,0,7.99.05,13.16,4.79,13.06,11.86-.1,6.68-5.37,11.47-13.03,11.5-18.8.07-37.59.07-56.39,0-7.8-.03-12.66-4.62-12.72-11.66-.07-6.97,4.72-11.52,12.7-11.65,9.48-.16,18.96-.04,28.44-.04Z"/>
      <path class="cls-1" d="M148.49,356.86c8.81,0,17.63-.04,26.44.01,7.45.04,12.77,5.01,12.74,11.75-.03,6.56-5.13,11.57-12.39,11.62-17.79.13-35.58.12-53.37.02-7.49-.04-12.28-4.66-12.41-11.48-.14-6.92,4.82-11.73,12.56-11.85,8.81-.14,17.62-.03,26.44-.03,0-.01,0-.03,0-.04Z"/>
      <path class="cls-1" d="M148.76,539.2c8.82,0,17.64-.04,26.46.01,7.69.05,12.61,4.75,12.48,11.79-.13,6.71-5.04,11.22-12.61,11.25-17.64.08-35.28.08-52.91.04-7.76-.02-12.72-4.67-12.7-11.67.02-6.92,4.99-11.42,12.84-11.47,8.82-.06,17.64-.01,26.46-.01,0,.02,0,.04,0,.06Z"/>
      <path class="cls-1" d="M215.67,501.48c-7.31,0-14.63.08-21.94-.03-7.27-.1-12.44-5.01-12.38-11.53.06-6.34,5.08-11.31,12.08-11.39,15.12-.16,30.25-.16,45.38-.04,6.72.05,11.61,5.35,11.46,11.89-.15,6.34-4.91,10.97-11.66,11.08-7.64.12-15.29.03-22.94.02Z"/>
      <path class="cls-1" d="M207.66,319.52c-5.16,0-10.31.13-15.46-.03-6.78-.21-11.36-4.9-11.36-11.34,0-6.65,4.29-11.44,11.11-11.59,10.97-.23,21.95-.19,32.92,0,6.27.11,10.78,4.99,10.99,11.31.2,5.89-4.58,11.31-10.74,11.61-5.81.28-11.64.06-17.46.06v-.02Z"/>
      <path class="cls-1" d="M320.44,319.55c-5.33,0-10.66.12-15.98-.03-6.38-.18-10.97-4.91-11.07-11.14-.1-6.31,4.17-11.55,10.52-11.73,11.15-.33,22.31-.31,33.46,0,6.27.18,10.94,5.98,10.67,12.24-.25,5.8-4.95,10.45-11.11,10.65-5.49.17-10.99.04-16.48.04v-.02Z"/>
      <path class="cls-1" d="M136.51,417.63c4.82,0,9.64-.14,14.46.03,6.64.24,11.47,5.02,11.68,11.25.19,5.79-4.35,11.67-10.51,11.94-10.94.48-21.93.46-32.87-.05-6.01-.28-9.95-5.82-9.77-11.88.19-6.24,4.53-10.91,11.06-11.28,5.3-.3,10.63-.06,15.95-.06v.05Z"/>
      <path class="cls-1" d="M122.92,501.68c-6.56-.08-11.83-5.3-11.84-11.71,0-6.21,5.58-11.59,12.01-11.58,6.91.01,12.18,5.25,12.03,11.96-.14,6.28-5.66,11.4-12.2,11.33Z"/>
      <path class="cls-1" d="M312.3,368.39c0-6.3,4.98-11.29,11.38-11.42,6.75-.13,12.2,5.17,12.15,11.8-.06,6.35-5.49,11.57-11.96,11.5-6.4-.07-11.57-5.38-11.57-11.89Z"/>
      <path class="cls-1" d="M232.65,551.33c-.36,6.41-5.89,11.39-12.32,11.07-6.3-.31-11.57-6.1-11.16-12.28.43-6.55,6.22-11.44,12.95-10.95,6.22.45,10.89,5.84,10.53,12.16Z"/>
      <path class="cls-1" d="M265.03,296.5c6.44.08,11.53,5.36,11.48,11.89-.05,6.35-5.53,11.56-11.96,11.36-6.5-.2-11.56-5.45-11.48-11.92.08-6.49,5.28-11.42,11.96-11.33Z"/>
    </g>
    <g id="color">
      <path class="cls-1" d="M694.08,330.02c-10.32-.76-19.2-1.51-28.1-1.95-1.14-.06-2.63,1.29-3.51,2.36-7.15,8.62-15.99,14.14-26.94,17.05-4.54,1.21-8.5,4.97-12.44,7.94-3.14,2.37-6.11,3.8-10.08,2.2-16.59-6.67-33.86-9.78-51.74-9.64-.58,0-1.17-.28-1.76-.43l-.51-1.42c8.57-4.27,17.18-8.44,25.68-12.84,4.85-2.52,9.72-5.11,14.21-8.2,8.64-5.95,17.56-6.26,26.58-.79,1.97,1.19,4.8,2.14,6.91,1.69,7.43-1.59,14.73-3.85,22.07-5.85.24-.58.48-1.17.73-1.75-5.61-4.44-10.71-9.8-16.91-13.15-29.38-15.87-58.75-14.93-87.49,1.88-16.81,9.83-29.79,23.84-38.84,40.82-10.32,19.36-19.18,39.49-28.68,59.28.4.44.79.89,1.19,1.33,1.95-.48,3.9-.96,5.85-1.45,21.08-5.38,41.72-4.95,61.14,5.84,23.73,13.18,33.56,34.3,32.77,60.72-.69,23.06-9.92,43.65-19.94,63.87-31.69,63.94-78.5,114.43-137.15,154.52-28.32,19.36-56.75,38.63-84.24,59.13-36.4,27.14-67.02,60.4-96.2,94.99-17.4,20.63-34.63,41.41-52.3,61.8-23.69,27.32-54.61,42.03-89.38,49.2-17.6,3.63-35.44,6.1-53.18,9.04-1.95.32-3.95.33-6.97.57,3.44-5.31,6.38-10,9.47-14.58,28.85-42.71,59.48-84.04,94.53-121.96,27.71-29.98,59.44-54.35,97.28-70.28,2.91-1.23,5.89-2.29,8.86-3.38.24-.09.6.15,1.71.45-10.35,10.45-20.25,20.77-30.49,30.73-22.09,21.48-45.62,41.64-66.19,64.48-22.14,24.57-41.58,51.58-62.17,77.54-1.22,1.53-2.18,3.27-4.04,6.09,6.75-1.42,12.37-2.41,17.88-3.81,28.31-7.17,51.89-21.7,70.77-44.23,26.11-31.16,52.25-62.31,79.34-92.62,33.85-37.87,73.61-68.94,115.94-96.82,29.92-19.71,59.63-39.72,86.01-64.21,24.43-22.69,46.12-47.62,63.5-76.16,1.37-2.26,2.63-4.59,3.63-7.26-106.28,59.74-215.61,114.01-316.22,183.47l-1.36-1.54c3.93-7.38,7.77-14.82,11.81-22.14,30.29-54.97,66.19-105.95,109.3-151.64,27.1-28.71,56.5-54.8,92.03-72.86,11.38-5.78,23.57-10,35.41-14.86,1.56-.64,3.31-.83,4.97-1.22.25.43.49.85.74,1.28-8.63,7.73-17.17,15.55-25.91,23.16-20.35,17.73-41.26,34.85-61.11,53.12-35.06,32.27-66.29,67.97-92.5,107.89-.35.54-.69,1.09-1.64,2.58,1.71-.76,2.52-1.05,3.26-1.46,76.9-42.68,153.83-85.33,230.67-128.12,7.69-4.28,15.35-8.85,22.28-14.24,18.12-14.1,25.13-41.91,15.9-62.9-7.03-15.98-20.68-22.87-37.23-24.79-14.23-1.65-27.88,1.35-41.16,6.18-21.7,7.89-41.78,19.08-61.63,30.72-1.26.74-2.55,1.42-4.59,1.62.97-1.79,1.71-3.75,2.94-5.35,8-10.41,14.99-21.93,24.43-30.83,14.7-13.84,23.9-30.36,30.9-48.84,8.94-23.61,19.74-46.4,36.56-65.59,30.27-34.53,67.57-50.86,113.69-40.89,20.25,4.38,37.15,15.32,49.97,31.9,1.99,2.58,3.94,3.38,7.1,3.24,21.86-.99,42.76,3.02,62.52,12.58,2.37,1.15,4.64,2.51,7.79,4.23-6.09,2.7-11.47,4.98-16.75,7.45-16.37,7.67-31.78,16.82-45.06,29.27-25.66,24.06-37.02,54.22-34.61,88.66,5.88,84.03-46.1,191.23-129.34,243.34-22.36,14-45.47,26.43-69.47,37.27-1.64.74-3.26,1.53-5.39,2.53,10.39,13,20.55,25.76,30.75,38.48,18.13,22.62,36.25,45.25,54.54,67.75,1.16,1.42,3.81,2.44,5.69,2.32,11.93-.76,23.65-.61,35.48,5.71-27.64,17.63-54.75,34.91-82.98,52.91-.48-20.74,9.01-35.11,23.71-47.49-16.88-21.09-33.72-42.12-50.56-63.16-16.85-21.07-33.69-42.15-50.87-63.64,6.74-3.31,13.04-6.21,19.16-9.43,21.52-11.29,43.34-22.08,64.4-34.17,53.35-30.62,90.92-75.17,114.43-131.87,10.81-26.08,17.81-52.98,18.56-81.31.34-12.98-.45-26.03.55-38.94,3.13-40.27,21.56-72.14,54.29-95.76,2.13-1.54,4.32-2.99,7.74-5.36Z"/>
      <path class="cls-1" d="M358.86,40.87c3.45,8.17,6.67,15.79,10.19,24.1-6.28,4.04-13.18,8.57-20.18,12.95-70.32,44.01-140.64,88.01-210.99,131.97-26.42,16.51-53.18,32.48-79.28,49.47-20.75,13.51-32.35,33.37-32.42,58.23-.37,128.31-.37,256.63-.14,384.94.04,22.77,11.51,39.84,30.55,51.86,23.94,15.12,47.96,30.12,71.94,45.19,1.54.97,3.02,2.03,4.78,3.23-5.63,6.01-10.96,11.94-16.65,17.49-.76.75-3.69.11-5.08-.75-16.28-10.1-32.47-20.35-48.65-30.6-9-5.7-18.31-11.01-26.86-17.34C12.2,753.96.2,729.79.15,700.34c-.23-125.65-.18-251.3.09-376.95.02-10.53,1.22-21.4,4.04-31.5,6.82-24.41,21.9-43.03,43.39-56.5,60.27-37.78,120.5-75.62,180.78-113.38,41.92-26.26,83.9-52.42,125.87-78.61,1.53-.95,3.15-1.76,4.53-2.52Z"/>
      <g>
        <path class="cls-2" d="M463.94,64.93c3.54-8.25,6.74-15.7,10.21-23.77,3.74,2.16,7.91,4.43,11.93,6.93,67.37,41.79,134.74,83.57,202.05,125.45,32.53,20.24,64.96,40.66,97.39,61.07,30.17,18.98,45.09,47.13,45.22,82.01.51,128.15.23,256.3.07,384.46-.03,27.24-10.24,50.64-30.6,68.59-10.41,9.18-22.71,16.27-34.46,23.84-57.14,36.81-114.39,73.46-171.6,110.16-43.32,27.79-86.29,56.15-130.09,83.17-26.47,16.33-54.92,16.91-81.58.55-45.57-27.96-90.31-57.25-135.39-86.01-1.37-.87-2.61-1.96-4.23-3.19,5.33-6.78,10.43-13.28,15.71-20.01,17.2,10.86,34.13,21.46,50.98,32.2,28.65,18.26,57.01,36.99,85.95,54.78,18.31,11.25,37.86,11.08,55.88-.44,94.88-60.66,189.49-121.74,284.2-182.67,12.75-8.2,25.52-16.37,38.29-24.53,20.68-13.21,30.89-32.56,30.96-56.6.3-104.32.12-208.64.13-312.97,0-23.16.09-46.33.01-69.49-.09-27.13-11.36-48.02-34.61-62.44-74.05-45.92-148.04-91.93-222.01-137.96-26.87-16.72-53.64-33.6-80.45-50.41-1.52-.95-2.98-2.01-3.98-2.7Z"/>
        <path class="cls-2" d="M259.21,441.2c-20.66,0-41.31-.04-61.97.03-5.72.02-10.08-2.07-12.44-7.43-3.49-7.92,2.35-16.01,11.82-16.13,13.66-.17,27.32-.08,40.98-.09,27.15-.01,54.3-.02,81.46-.02,1.67,0,3.34-.05,5,.08,6.95.58,11.82,5.55,11.74,11.92-.08,6.24-5.19,11.41-12.12,11.54-11.32.23-22.65.07-33.98.07-10.16,0-20.32,0-30.48,0v.02Z"/>
        <path class="cls-2" d="M416.37,66.3c-18.83-.08-33.29-14.61-33.17-33.36C383.3,14.78,398.36-.12,416.49,0c18.33.12,33.76,15.82,33.53,34.09-.22,17.37-15.81,32.29-33.65,32.21Z"/>
        <path class="cls-2" d="M250.04,356.93c9.31,0,18.63-.05,27.94,0,7.99.05,13.16,4.79,13.06,11.86-.1,6.68-5.37,11.47-13.03,11.5-18.8.07-37.59.07-56.39,0-7.8-.03-12.66-4.62-12.72-11.66-.07-6.97,4.72-11.52,12.7-11.65,9.48-.16,18.96-.04,28.44-.04Z"/>
        <path class="cls-2" d="M148.49,356.86c8.81,0,17.63-.04,26.44.01,7.45.04,12.77,5.01,12.74,11.75-.03,6.56-5.13,11.57-12.39,11.62-17.79.13-35.58.12-53.37.02-7.49-.04-12.28-4.66-12.41-11.48-.14-6.92,4.82-11.73,12.56-11.85,8.81-.14,17.62-.03,26.44-.03,0-.01,0-.03,0-.04Z"/>
        <path class="cls-2" d="M148.76,539.2c8.82,0,17.64-.04,26.46.01,7.69.05,12.61,4.75,12.48,11.79-.13,6.71-5.04,11.22-12.61,11.25-17.64.08-35.28.08-52.91.04-7.76-.02-12.72-4.67-12.7-11.67.02-6.92,4.99-11.42,12.84-11.47,8.82-.06,17.64-.01,26.46-.01,0,.02,0,.04,0,.06Z"/>
        <path class="cls-2" d="M215.67,501.48c-7.31,0-14.63.08-21.94-.03-7.27-.1-12.44-5.01-12.38-11.53.06-6.34,5.08-11.31,12.08-11.39,15.12-.16,30.25-.16,45.38-.04,6.72.05,11.61,5.35,11.46,11.89-.15,6.34-4.91,10.97-11.66,11.08-7.64.12-15.29.03-22.94.02Z"/>
        <path class="cls-2" d="M207.66,319.52c-5.16,0-10.31.13-15.46-.03-6.78-.21-11.36-4.9-11.36-11.34,0-6.65,4.29-11.44,11.11-11.59,10.97-.23,21.95-.19,32.92,0,6.27.11,10.78,4.99,10.99,11.31.2,5.89-4.58,11.31-10.74,11.61-5.81.28-11.64.06-17.46.06v-.02Z"/>
        <path class="cls-2" d="M320.44,319.55c-5.33,0-10.66.12-15.98-.03-6.38-.18-10.97-4.91-11.07-11.14-.1-6.31,4.17-11.55,10.52-11.73,11.15-.33,22.31-.31,33.46,0,6.27.18,10.94,5.98,10.67,12.24-.25,5.8-4.95,10.45-11.11,10.65-5.49.17-10.99.04-16.48.04v-.02Z"/>
        <path class="cls-2" d="M136.51,417.63c4.82,0,9.64-.14,14.46.03,6.64.24,11.47,5.02,11.68,11.25.19,5.79-4.35,11.67-10.51,11.94-10.94.48-21.93.46-32.87-.05-6.01-.28-9.95-5.82-9.77-11.88.19-6.24,4.53-10.91,11.06-11.28,5.3-.3,10.63-.06,15.95-.06v.05Z"/>
        <path class="cls-2" d="M122.92,501.68c-6.56-.08-11.83-5.3-11.84-11.71,0-6.21,5.58-11.59,12.01-11.58,6.91.01,12.18,5.25,12.03,11.96-.14,6.28-5.66,11.4-12.2,11.33Z"/>
        <path class="cls-2" d="M312.3,368.39c0-6.3,4.98-11.29,11.38-11.42,6.75-.13,12.2,5.17,12.15,11.8-.06,6.35-5.49,11.57-11.96,11.5-6.4-.07-11.57-5.38-11.57-11.89Z"/>
        <path class="cls-2" d="M232.65,551.33c-.36,6.41-5.89,11.39-12.32,11.07-6.3-.31-11.57-6.1-11.16-12.28.43-6.55,6.22-11.44,12.95-10.95,6.22.45,10.89,5.84,10.53,12.16Z"/>
        <path class="cls-2" d="M265.03,296.5c6.44.08,11.53,5.36,11.48,11.89-.05,6.35-5.53,11.56-11.96,11.36-6.5-.2-11.56-5.45-11.48-11.92.08-6.49,5.28-11.42,11.96-11.33Z"/>
      </g>
    </g>
  </g>
</svg>
